<?xml version="1.0" encoding="utf-8"?>
<!-- Generator: Adobe Illustrator 25.3.1, SVG Export Plug-In . SVG Version: 6.00 Build 0)  -->
<svg version="1.1" id="图层_1" xmlns="http://www.w3.org/2000/svg" xmlns:xlink="http://www.w3.org/1999/xlink" x="0px" y="0px"
	 viewBox="0 0 904 510" style="enable-background:new 0 0 904 510;" xml:space="preserve">
<style type="text/css">
	.st0{fill:#FFFF00;}
</style>
<g>
	<path class="st0" d="M79.2,86.9c-3.12,8.77-6.65,14.34-10.58,16.71c-3.94,2.38-7.39,3.56-10.36,3.56c-2.97,0-7.06-2.79-12.25-8.35
		c-5.2-5.57-7.8-8.76-7.8-9.58c0-0.81,0.26-1.23,0.78-1.23c0.52,0,1.37,0.26,2.56,0.78c1.19,0.52,2.6,0.78,4.23,0.78
		c5.05,0,12.85-4.68,23.39-14.04c2.23-1.93,5.05-2.9,8.47-2.9c6.98,0,13.03,2.19,18.16,6.57c5.12,4.38,7.69,8.95,7.69,13.7
		c0,1.78-0.63,3.38-1.89,4.79c-1.26,1.41-2.9,4.2-4.9,8.36c-2.01,4.16-3.42,8.24-4.23,12.25c-0.82,4.01-2.56,8.32-5.24,12.92
		c2.82,4.31,5.12,10.69,6.91,19.16c1.78,8.47,2.67,13.37,2.67,14.71s-0.63,2.01-1.89,2.01c-1.26,0-4.27-1.52-9.02-4.57
		c-4.76-3.04-8.84-7.24-12.25-12.59c-7.28,8.62-13.93,15.04-19.94,19.27c-6.02,4.23-11.11,6.35-15.26,6.35
		c-2.08,0-3.71-0.48-4.9-1.45c-1.19-0.96-3.42-4.38-6.68-10.25c-3.27-5.87-4.9-9.1-4.9-9.69c0-0.59,0.18-0.89,0.56-0.89
		c0.37,0,1.08,0.45,2.12,1.34c2.82,2.23,5.72,3.34,8.69,3.34c7.72,0,16.41-6.83,26.07-20.5c-1.49-2.37-4.42-4.19-8.8-5.46
		c-4.38-1.26-11.85-2.64-22.39-4.12c-1.64-0.3-2.45-0.74-2.45-1.34c0-1.48,3.23-3.64,9.69-6.46c6.46-2.82,13.93-4.23,22.39-4.23
		c4.9,0,9.13,0.6,12.7,1.78c2.67-3.71,4.86-8.17,6.57-13.37c1.71-5.2,2.56-9.13,2.56-11.81S79.5,87.94,79.2,86.9z M132.67,143.04
		c9.95,0.6,19.5,2.23,28.63,4.9c9.13,2.67,17.34,5.98,24.62,9.91c7.28,3.94,12.1,9.21,14.48,15.82c2.37,6.61,3.56,11.55,3.56,14.82
		c0,1.93-0.67,2.9-2.01,2.9c-2.67,0-12.29-5.42-28.85-16.26c-16.56-10.84-30.27-20.35-41.11-28.52
		c-1.64,10.84-6.54,19.68-14.71,26.51c-8.17,6.83-16.64,10.25-25.4,10.25c-3.42,0-6.43-0.6-9.02-1.78c-2.6-1.19-3.9-2.3-3.9-3.34
		s1.45-1.63,4.34-1.78c2.9-0.15,8.02-3.23,15.37-9.25s12.7-13,16.04-20.94c3.34-7.94,4.86-15.56,4.57-22.84
		c-3.86,3.71-6.43,5.57-7.69,5.57c-1.26,0-2.56-2.45-3.9-7.35s-2.01-9.5-2.01-13.81c0-2.82,0.96-4.97,2.9-6.46
		c3.12-2.37,5.83-6.27,8.13-11.7c2.3-5.42,4.94-13.74,7.91-24.95c2.97-11.21,4.46-17.64,4.46-19.27c0-2.67-1.38-4.01-4.12-4.01
		c-2.75,0-6.13,2.08-10.14,6.24c-4.01,4.16-6.76,8.84-8.24,14.04c-0.45,1.49-0.93,2.23-1.45,2.23c-0.52,0-0.78-0.67-0.78-2
		c0-8.17,2.23-15.63,6.68-22.39c4.46-6.76,10.32-10.14,17.6-10.14c6.09,0,11.29,2.19,15.6,6.57c4.31,4.38,6.46,9.17,6.46,14.37
		c0,2.23-0.52,4.31-1.56,6.24c-6.24,11.44-11.74,22.43-16.49,32.98c15.15-8.02,23.88-12.92,26.18-14.71
		c2.3-1.78,4.75-2.67,7.35-2.67c2.6,0,6.27,1.45,11.03,4.34c4.75,2.9,7.58,5.87,8.47,8.91c0.89,3.05,1.34,5.87,1.34,8.47
		c0,2.6-0.93,5.2-2.79,7.8c-1.86,2.6-5.16,5.68-9.91,9.25c-4.76,3.56-9.95,6.54-15.6,8.91c-5.65,2.38-9.99,3.56-13.03,3.56
		c-3.05,0-6.72-2-11.03-6.02C135.12,126.78,134.46,135.32,132.67,143.04z M134.9,116.08c10.4-1.34,17.6-5.01,21.61-11.03
		c4.01-6.02,6.02-9.8,6.02-11.36s-0.41-2.34-1.23-2.34c-0.82,0-1.82,0.52-3.01,1.56c-6.83,6.24-14.63,12.33-23.39,18.27
		C134.6,113.26,134.6,114.9,134.9,116.08z"/>
	<path class="st0" d="M302,86.9c-3.12,8.77-6.65,14.34-10.58,16.71c-3.94,2.38-7.39,3.56-10.36,3.56c-2.97,0-7.06-2.79-12.25-8.35
		c-5.2-5.57-7.8-8.76-7.8-9.58c0-0.81,0.26-1.23,0.78-1.23c0.52,0,1.37,0.26,2.56,0.78c1.19,0.52,2.6,0.78,4.23,0.78
		c5.05,0,12.85-4.68,23.39-14.04c2.23-1.93,5.05-2.9,8.47-2.9c6.98,0,13.03,2.19,18.16,6.57c5.12,4.38,7.69,8.95,7.69,13.7
		c0,1.78-0.63,3.38-1.89,4.79c-1.26,1.41-2.9,4.2-4.9,8.36c-2.01,4.16-3.42,8.24-4.23,12.25c-0.82,4.01-2.56,8.32-5.24,12.92
		c2.82,4.31,5.12,10.69,6.91,19.16c1.78,8.47,2.67,13.37,2.67,14.71s-0.63,2.01-1.89,2.01c-1.26,0-4.27-1.52-9.02-4.57
		c-4.76-3.04-8.84-7.24-12.25-12.59c-7.28,8.62-13.93,15.04-19.94,19.27c-6.02,4.23-11.11,6.35-15.26,6.35
		c-2.08,0-3.71-0.48-4.9-1.45c-1.19-0.96-3.42-4.38-6.68-10.25c-3.27-5.87-4.9-9.1-4.9-9.69c0-0.59,0.18-0.89,0.56-0.89
		c0.37,0,1.08,0.45,2.12,1.34c2.82,2.23,5.72,3.34,8.69,3.34c7.72,0,16.41-6.83,26.07-20.5c-1.49-2.37-4.42-4.19-8.8-5.46
		c-4.38-1.26-11.85-2.64-22.39-4.12c-1.64-0.3-2.45-0.74-2.45-1.34c0-1.48,3.23-3.64,9.69-6.46c6.46-2.82,13.93-4.23,22.39-4.23
		c4.9,0,9.13,0.6,12.7,1.78c2.67-3.71,4.86-8.17,6.57-13.37c1.71-5.2,2.56-9.13,2.56-11.81S302.3,87.94,302,86.9z M355.48,143.04
		c9.95,0.6,19.5,2.23,28.63,4.9c9.13,2.67,17.34,5.98,24.62,9.91c7.28,3.94,12.1,9.21,14.48,15.82c2.37,6.61,3.56,11.55,3.56,14.82
		c0,1.93-0.67,2.9-2.01,2.9c-2.67,0-12.29-5.42-28.85-16.26c-16.56-10.84-30.27-20.35-41.11-28.52
		c-1.64,10.84-6.54,19.68-14.71,26.51c-8.17,6.83-16.64,10.25-25.4,10.25c-3.42,0-6.43-0.6-9.02-1.78c-2.6-1.19-3.9-2.3-3.9-3.34
		s1.45-1.63,4.34-1.78c2.9-0.15,8.02-3.23,15.37-9.25s12.7-13,16.04-20.94c3.34-7.94,4.86-15.56,4.57-22.84
		c-3.86,3.71-6.43,5.57-7.69,5.57c-1.26,0-2.56-2.45-3.9-7.35s-2.01-9.5-2.01-13.81c0-2.82,0.96-4.97,2.9-6.46
		c3.12-2.37,5.83-6.27,8.13-11.7c2.3-5.42,4.94-13.74,7.91-24.95c2.97-11.21,4.46-17.64,4.46-19.27c0-2.67-1.38-4.01-4.12-4.01
		c-2.75,0-6.13,2.08-10.14,6.24c-4.01,4.16-6.76,8.84-8.24,14.04c-0.45,1.49-0.93,2.23-1.45,2.23c-0.52,0-0.78-0.67-0.78-2
		c0-8.17,2.23-15.63,6.68-22.39c4.46-6.76,10.32-10.14,17.6-10.14c6.09,0,11.29,2.19,15.6,6.57c4.31,4.38,6.46,9.17,6.46,14.37
		c0,2.23-0.52,4.31-1.56,6.24c-6.24,11.44-11.74,22.43-16.49,32.98c15.15-8.02,23.88-12.92,26.18-14.71
		c2.3-1.78,4.75-2.67,7.35-2.67c2.6,0,6.27,1.45,11.03,4.34c4.75,2.9,7.58,5.87,8.47,8.91c0.89,3.05,1.34,5.87,1.34,8.47
		c0,2.6-0.93,5.2-2.79,7.8c-1.86,2.6-5.16,5.68-9.91,9.25c-4.76,3.56-9.95,6.54-15.6,8.91c-5.65,2.38-9.99,3.56-13.03,3.56
		c-3.05,0-6.72-2-11.03-6.02C357.93,126.78,357.26,135.32,355.48,143.04z M357.71,116.08c10.4-1.34,17.6-5.01,21.61-11.03
		c4.01-6.02,6.02-9.8,6.02-11.36s-0.41-2.34-1.23-2.34c-0.82,0-1.82,0.52-3.01,1.56c-6.83,6.24-14.63,12.33-23.39,18.27
		C357.41,113.26,357.41,114.9,357.71,116.08z"/>
	<path class="st0" d="M592.54,126.55c19.61-2.82,32.16-4.23,37.65-4.23c5.49,0,10.28,0.63,14.37,1.89c4.08,1.26,6.91,3.05,8.47,5.35
		c1.56,2.3,2.34,4.2,2.34,5.68c0,1.49-0.71,2.75-2.12,3.79c-1.41,1.04-3.08,1.56-5.01,1.56c-1.93,0-3.64-0.15-5.12-0.45
		c-13.52-2.82-24.29-4.23-32.31-4.23c-8.02,0-14.41,0.22-19.16,0.67c-0.75,1.93-4.09,7.43-10.03,16.49
		c5.35,0.3,9.13,0.93,11.36,1.89c2.23,0.97,4.34,2.45,6.35,4.46c2.01,2.01,3.68,3.86,5.01,5.57c1.34,1.71,2,3.75,2,6.13
		c0,2.38-2.08,6.54-6.24,12.48c-1.49,2.08-2.23,4.08-2.23,6.02c0,1.93,1.26,4.46,3.79,7.58c1.19,1.48,1.78,3.01,1.78,4.57
		s-0.63,2.9-1.89,4.01c-1.26,1.11-2.71,1.67-4.34,1.67c-1.64,0-3.12-0.22-4.46-0.67c-8.62-2.53-16.12-3.79-22.5-3.79
		c-9.66,0-17.46,2.9-23.39,8.69c0.3,2.52-0.19,3.79-1.45,3.79c-1.26,0-3.57-1.3-6.91-3.9c-3.34-2.6-6.05-6.24-8.13-10.92
		c-2.08-4.68-3.23-10.25-3.45-16.71s-0.86-11.1-1.89-13.93c-1.04-2.82-1.56-4.75-1.56-5.79c0-1.04,0.45-2.23,1.34-3.56
		c0.89-1.34,1.67-2.01,2.34-2.01c0.67,0,1.45,0.45,2.34,1.34c0.89,0.89,3.49,4.68,7.8,11.36c3.27-2.23,6.53-4.01,9.8-5.35
		c0.74-0.3,1.11-0.78,1.11-1.45s-0.74-1.11-2.23-1.34c-1.49-0.22-2.23-0.48-2.23-0.78c0-0.3,1.41-0.59,4.23-0.89
		c11.59-1.63,19.53-9.06,23.84-22.28c-8.47,1.19-16.64,2.67-24.51,4.46c-1.34,4.76-2.97,11.66-4.9,20.72
		c-0.45,2.67-1.3,4.01-2.56,4.01c-1.26,0-3.27-1.56-6.02-4.68c-2.75-3.12-4.42-8.09-5.01-14.93c-10.99,3.56-18.38,6.09-22.17,7.58
		c-3.79,1.49-7.95,3.45-12.48,5.9c-4.53,2.45-8.77,3.68-12.7,3.68c-3.94,0-7.02-0.89-9.25-2.67c-2.23-1.78-3.34-3.93-3.34-6.46
		c0-4.01,2.9-6.02,8.69-6.02c2.52,0,4.6-0.22,6.24-0.67c1.63-0.45,6.83-2.52,15.6-6.24l30.08-12.7c0-2.23,0.7-3.34,2.12-3.34
		c1.41,0,3.23,0.15,5.46,0.45c1.04-0.59,1.78-0.96,2.23-1.11c-3.56-2.67-6.54-6.35-8.91-11.03c-2.38-4.68-3.71-8.65-4.01-11.92
		c-0.3-3.27-1-6.09-2.12-8.47c-1.11-2.37-1.67-4.53-1.67-6.46c0-1.93,0.81-4.23,2.45-6.91c-9.8-5.64-14.71-10.17-14.71-13.59
		c0-1.93,0.96-2.9,2.9-2.9c0.74,0,1.48,0.22,2.23,0.67c0.74,0.45,1.78,0.67,3.12,0.67c3.27,0,14.71-2.15,34.31-6.46
		c-6.54-0.89-11.44-2.15-14.71-3.79c-3.27-1.63-7.02-4.71-11.25-9.25c-4.23-4.53-6.35-7.05-6.35-7.58c0-0.52,0.3-0.78,0.89-0.78
		c0.59,0,1.78,0.52,3.57,1.56c1.78,1.04,3.93,1.56,6.46,1.56c5.79,0,14.41-2.6,25.85-7.8c0.3-4.01,0.45-7.39,0.45-10.14
		c0-2.75-0.82-4.12-2.45-4.12l-3.79,0.67c-0.89,0-1.71-0.52-2.45-1.56c-0.75-1.04-1.11-2.6-1.11-4.68c0-2.08,0.74-3.6,2.23-4.57
		c1.48-0.96,4.08-1.45,7.8-1.45c9.5,0,15.71,1.67,18.6,5.01c2.9,3.34,4.12,7.99,3.68,13.93c8.32-0.45,13.51,0.86,15.6,3.9
		c2.08,3.05,3.12,5.5,3.12,7.35c0,1.86-0.41,3.12-1.23,3.79c-0.82,0.67-2.27,1-4.34,1c-6.24,0-11.96,1.93-17.16,5.79
		c-0.45,1.34-0.97,3.64-1.56,6.91c6.98-1.93,12.18-2.9,15.6-2.9c3.42,0,6.91,1.41,10.47,4.23c3.57,2.82,5.35,5.12,5.35,6.91
		c0,3.12-3.57,4.76-10.69,4.9c-4.31,0.15-13.96,1.75-28.96,4.79c-15,3.05-26.66,5.9-34.98,8.58c-0.3,0.75-0.45,1.56-0.45,2.45
		c0,3.56,1.26,6.09,3.79,7.58c5.94-6.09,12.77-10.54,20.5-13.37c7.72-2.82,14-4.23,18.83-4.23c4.83,0,9.17,1.64,13.03,4.9
		c3.86,3.27,5.79,6.76,5.79,10.47c0,2.23-0.75,4.16-2.23,5.79l-10.69,12.48c0.45,1.78,1.26,3.94,2.45,6.46
		C588.45,120.39,591.8,124.03,592.54,126.55z M529.93,138.81c0-2.08-0.08-3.49-0.22-4.23c-11.14,3.27-19.24,6.24-24.29,8.91
		C512.7,142.75,520.87,141.19,529.93,138.81z M542.86,130.79c-1.64,0.3-3.79,0.89-6.46,1.78c0,2.08,0.82,3.49,2.45,4.23
		C541.22,135.62,542.56,133.61,542.86,130.79z M544.42,191.61c1.19,0.3,2.6,0.45,4.23,0.45c5.64,0,12.22-1.75,19.72-5.24
		c7.5-3.49,11.25-7.46,11.25-11.92c0-1.34-0.52-2-1.56-2c-0.45,0-4.53,1.08-12.25,3.23c-7.72,2.15-12.51,3.23-14.37,3.23
		c-1.86,0-3.31-0.22-4.34-0.67c-1.04-0.45-2.19-0.67-3.45-0.67c-1.26,0-2.04,0.81-2.34,2.45
		C542.63,183.74,543.67,187.45,544.42,191.61z M542.41,100.26c-0.59,1.78-0.89,3.34-0.89,4.68c0,3.42,1.48,5.12,4.46,5.12
		c1.19,0,4.68-0.81,10.47-2.45c5.79-1.63,9.47-3.68,11.03-6.13c1.56-2.45,2.34-4.16,2.34-5.12c0-0.96-0.93-1.45-2.79-1.45
		C565.17,94.92,556.97,96.7,542.41,100.26z M573.38,129.67c0-3.71-0.37-6.91-1.11-9.58c-1.34-0.3-7.28,1.93-17.82,6.68
		c-1.78,2.67-3.2,5.12-4.23,7.35C560.46,132.05,568.18,130.56,573.38,129.67z"/>
	<path class="st0" d="M815.35,126.55c19.61-2.82,32.16-4.23,37.65-4.23c5.49,0,10.28,0.63,14.37,1.89c4.08,1.26,6.91,3.05,8.47,5.35
		c1.56,2.3,2.34,4.2,2.34,5.68c0,1.49-0.71,2.75-2.12,3.79c-1.41,1.04-3.08,1.56-5.01,1.56c-1.93,0-3.64-0.15-5.12-0.45
		c-13.52-2.82-24.29-4.23-32.31-4.23c-8.02,0-14.41,0.22-19.16,0.67c-0.75,1.93-4.09,7.43-10.03,16.49
		c5.35,0.3,9.13,0.93,11.36,1.89c2.23,0.97,4.34,2.45,6.35,4.46c2.01,2.01,3.68,3.86,5.01,5.57c1.34,1.71,2,3.75,2,6.13
		c0,2.38-2.08,6.54-6.24,12.48c-1.49,2.08-2.23,4.08-2.23,6.02c0,1.93,1.26,4.46,3.79,7.58c1.19,1.48,1.78,3.01,1.78,4.57
		s-0.63,2.9-1.89,4.01c-1.26,1.11-2.71,1.67-4.34,1.67c-1.64,0-3.12-0.22-4.46-0.67c-8.62-2.53-16.12-3.79-22.5-3.79
		c-9.66,0-17.46,2.9-23.39,8.69c0.3,2.52-0.19,3.79-1.45,3.79c-1.26,0-3.57-1.3-6.91-3.9c-3.34-2.6-6.05-6.24-8.13-10.92
		c-2.08-4.68-3.23-10.25-3.45-16.71s-0.86-11.1-1.89-13.93c-1.04-2.82-1.56-4.75-1.56-5.79c0-1.04,0.45-2.23,1.34-3.56
		c0.89-1.34,1.67-2.01,2.34-2.01c0.67,0,1.45,0.45,2.34,1.34c0.89,0.89,3.49,4.68,7.8,11.36c3.27-2.23,6.53-4.01,9.8-5.35
		c0.74-0.3,1.11-0.78,1.11-1.45s-0.74-1.11-2.23-1.34c-1.49-0.22-2.23-0.48-2.23-0.78c0-0.3,1.41-0.59,4.23-0.89
		c11.59-1.63,19.53-9.06,23.84-22.28c-8.47,1.19-16.64,2.67-24.51,4.46c-1.34,4.76-2.97,11.66-4.9,20.72
		c-0.45,2.67-1.3,4.01-2.56,4.01c-1.26,0-3.27-1.56-6.02-4.68c-2.75-3.12-4.42-8.09-5.01-14.93c-10.99,3.56-18.38,6.09-22.17,7.58
		c-3.79,1.49-7.95,3.45-12.48,5.9c-4.53,2.45-8.77,3.68-12.7,3.68c-3.94,0-7.02-0.89-9.25-2.67c-2.23-1.78-3.34-3.93-3.34-6.46
		c0-4.01,2.9-6.02,8.69-6.02c2.52,0,4.6-0.22,6.24-0.67c1.63-0.45,6.83-2.52,15.6-6.24l30.08-12.7c0-2.23,0.7-3.34,2.12-3.34
		c1.41,0,3.23,0.15,5.46,0.45c1.04-0.59,1.78-0.96,2.23-1.11c-3.56-2.67-6.54-6.35-8.91-11.03c-2.38-4.68-3.71-8.65-4.01-11.92
		c-0.3-3.27-1-6.09-2.12-8.47c-1.11-2.37-1.67-4.53-1.67-6.46c0-1.93,0.81-4.23,2.45-6.91c-9.8-5.64-14.71-10.17-14.71-13.59
		c0-1.93,0.96-2.9,2.9-2.9c0.74,0,1.48,0.22,2.23,0.67c0.74,0.45,1.78,0.67,3.12,0.67c3.27,0,14.71-2.15,34.31-6.46
		c-6.54-0.89-11.44-2.15-14.71-3.79c-3.27-1.63-7.02-4.71-11.25-9.25c-4.23-4.53-6.35-7.05-6.35-7.58c0-0.52,0.3-0.78,0.89-0.78
		c0.59,0,1.78,0.52,3.57,1.56c1.78,1.04,3.93,1.56,6.46,1.56c5.79,0,14.41-2.6,25.85-7.8c0.3-4.01,0.45-7.39,0.45-10.14
		c0-2.75-0.82-4.12-2.45-4.12l-3.79,0.67c-0.89,0-1.71-0.52-2.45-1.56c-0.75-1.04-1.11-2.6-1.11-4.68c0-2.08,0.74-3.6,2.23-4.57
		c1.48-0.96,4.08-1.45,7.8-1.45c9.5,0,15.71,1.67,18.6,5.01c2.9,3.34,4.12,7.99,3.68,13.93c8.32-0.45,13.51,0.86,15.6,3.9
		c2.08,3.05,3.12,5.5,3.12,7.35c0,1.86-0.41,3.12-1.23,3.79c-0.82,0.67-2.27,1-4.34,1c-6.24,0-11.96,1.93-17.16,5.79
		c-0.45,1.34-0.97,3.64-1.56,6.91c6.98-1.93,12.18-2.9,15.6-2.9c3.42,0,6.91,1.41,10.47,4.23c3.57,2.82,5.35,5.12,5.35,6.91
		c0,3.12-3.57,4.76-10.69,4.9c-4.31,0.15-13.96,1.75-28.96,4.79c-15,3.05-26.66,5.9-34.98,8.58c-0.3,0.75-0.45,1.56-0.45,2.45
		c0,3.56,1.26,6.09,3.79,7.58c5.94-6.09,12.77-10.54,20.5-13.37c7.72-2.82,14-4.23,18.83-4.23c4.83,0,9.17,1.64,13.03,4.9
		c3.86,3.27,5.79,6.76,5.79,10.47c0,2.23-0.75,4.16-2.23,5.79l-10.69,12.48c0.45,1.78,1.26,3.94,2.45,6.46
		C811.26,120.39,814.6,124.03,815.35,126.55z M752.74,138.81c0-2.08-0.08-3.49-0.22-4.23c-11.14,3.27-19.24,6.24-24.29,8.91
		C735.51,142.75,743.68,141.19,752.74,138.81z M765.66,130.79c-1.64,0.3-3.79,0.89-6.46,1.78c0,2.08,0.82,3.49,2.45,4.23
		C764.02,135.62,765.36,133.61,765.66,130.79z M767.22,191.61c1.19,0.3,2.6,0.45,4.23,0.45c5.64,0,12.22-1.75,19.72-5.24
		c7.5-3.49,11.25-7.46,11.25-11.92c0-1.34-0.52-2-1.56-2c-0.45,0-4.53,1.08-12.25,3.23c-7.72,2.15-12.51,3.23-14.37,3.23
		c-1.86,0-3.31-0.22-4.34-0.67c-1.04-0.45-2.19-0.67-3.45-0.67c-1.26,0-2.04,0.81-2.34,2.45
		C765.44,183.74,766.48,187.45,767.22,191.61z M765.21,100.26c-0.59,1.78-0.89,3.34-0.89,4.68c0,3.42,1.48,5.12,4.46,5.12
		c1.19,0,4.68-0.81,10.47-2.45c5.79-1.63,9.47-3.68,11.03-6.13c1.56-2.45,2.34-4.16,2.34-5.12c0-0.96-0.93-1.45-2.79-1.45
		C787.98,94.92,779.77,96.7,765.21,100.26z M796.19,129.67c0-3.71-0.37-6.91-1.11-9.58c-1.34-0.3-7.28,1.93-17.82,6.68
		c-1.78,2.67-3.2,5.12-4.23,7.35C783.26,132.05,790.98,130.56,796.19,129.67z"/>
	<path class="st0" d="M260.56,440.26c5.49,1.04,10.66,1.56,15.48,1.56c4.83,0,8.58-0.22,11.25-0.67c2.67-0.45,5.87-0.67,9.58-0.67
		c8.02,0,13.93,0.82,17.71,2.45c3.79,1.64,5.68,3.49,5.68,5.57c0,1.04-0.56,1.93-1.67,2.67c-1.11,0.74-4.16,1.97-9.13,3.68
		c-4.98,1.71-10.81,3.08-17.49,4.12c-6.68,1.04-13.29,1.56-19.83,1.56c-9.8,0-16.64-0.89-20.5-2.67c-3.86-1.78-9.43-4.09-16.71-6.91
		c-7.28-2.82-13.11-4.79-17.49-5.9c-4.38-1.11-12.14-1.67-23.28-1.67s-18.09,0.52-20.83,1.56c-2.75,1.04-4.98,1.56-6.68,1.56
		c-1.71,0-3.94-2.23-6.68-6.68c-2.75-4.46-4.12-7.46-4.12-9.02s0.41-2.34,1.23-2.34c0.81,0,1.52,0.08,2.12,0.22
		c2.08,0.75,4.9,1.11,8.47,1.11s6.5-0.96,8.8-2.9c2.3-1.93,3.45-3.9,3.45-5.9c0-2-1.19-3.75-3.56-5.24
		c-4.9-3.12-8.39-6.13-10.47-9.02c-2.08-2.9-3.12-6.5-3.12-10.81l0.45-6.91c0-0.89-0.19-1.48-0.56-1.78
		c-0.37-0.3-1.08-0.45-2.12-0.45c-3.86,0-7.54-1.59-11.03-4.79c-3.49-3.19-5.24-7.54-5.24-13.03c0-3.12,0.52-4.68,1.56-4.68
		c1.04,0,2.04,0.48,3.01,1.45c0.96,0.97,1.82,1.45,2.56,1.45c0.74,0,1.48-0.22,2.23-0.67c2.67-1.63,6.31-2.45,10.92-2.45
		c4.6,0,9.32,1.53,14.15,4.57c4.83,3.05,7.24,5.9,7.24,8.58c0,2.67-1.26,5.05-3.79,7.13c-0.3,0.3-1.3,2.6-3.01,6.91
		c-1.71,4.31-2.93,7.72-3.68,10.25c12.18,9.06,18.94,19.01,20.28,29.86c17.23,2.82,34.24,6.39,51.02,10.7
		c0.15-1.63-0.26-2.86-1.23-3.68c-0.97-0.81-2.71-1.89-5.24-3.23c-9.8-5.2-17.46-10.32-22.95-15.37c-5.5-5.05-9.95-10.92-13.37-17.6
		c7.13,6.09,14.22,10.55,21.28,13.37c7.05,2.82,13.4,4.23,19.05,4.23c2.08,0,3.45-0.59,4.12-1.78c0.67-1.19,1.15-4.04,1.45-8.58
		c0.3-4.53,0.45-12.07,0.45-22.61c0-10.54-0.3-19.46-0.89-26.74c-3.42,2.38-8.54,5.46-15.37,9.25c-6.83,3.79-10.99,5.98-12.48,6.57
		c-1.49,0.6-3.12,0.89-4.9,0.89c-1.78,0-4.2-1.08-7.24-3.23c-3.05-2.15-6.98-5.57-11.81-10.25c-4.83-4.68-7.24-7.28-7.24-7.8
		c0-0.52,0.37-0.78,1.11-0.78c0.74,0,2.04,0.33,3.9,1c1.86,0.67,3.75,1,5.68,1c4.9,0,10.84-2,17.82-6.02
		c11.88-6.53,21.83-11.66,29.86-15.37c0.15-4.9,0.22-9.5,0.22-13.81c0-4.31-1.08-8.47-3.23-12.48c-2.15-4.01-3.49-6.02-4.01-6.02
		c-0.52,0-0.97,0.26-1.34,0.78c-0.37,0.52-0.78,0.78-1.23,0.78c-1.04,0-1.56-1.48-1.56-4.46c0-2.97,1.86-4.46,5.57-4.46
		c5.49,0,10.32,1.71,14.48,5.12c4.16,3.42,7.2,6.57,9.14,9.47c1.93,2.9,2.9,7.02,2.9,12.37c0,1.64-0.08,3.49-0.22,5.57
		c3.71-0.45,7.46,0.67,11.25,3.34s5.68,5.46,5.68,8.36s-0.89,4.57-2.67,5.01c-9.66,2.53-15.45,4.61-17.38,6.24
		c-1.78,11.74-2.67,19.31-2.67,22.73c0,3.42,0.37,8.73,1.11,15.93c0.74,7.21,1.11,15.04,1.11,23.51
		C265.91,428.9,264.13,437.89,260.56,440.26z M159.19,320.84c1.48,0,5.05,1.04,10.69,3.12c5.64,2.08,11.03,4.87,16.15,8.36
		c5.12,3.49,7.69,6.13,7.69,7.91s-0.75,3.27-2.23,4.46c-1.49,1.19-3.56,2.16-6.24,2.9l-16.26,5.79c-8.47,2.97-13.11,4.46-13.93,4.46
		c-0.82,0-1.23-0.15-1.23-0.45c0-0.3,0.37-0.81,1.11-1.56c8.32-8.17,12.48-13,12.48-14.48c0-0.59-0.93-2-2.78-4.23
		c-1.86-2.23-3.68-4.64-5.46-7.24c-1.78-2.6-2.67-4.75-2.67-6.46C156.51,321.7,157.4,320.84,159.19,320.84z M240.29,397.48
		c0,1.78-0.82,3.42-2.45,4.9c-1.64,1.49-6.02,2.23-13.15,2.23c-7.13,0-10.69-1.26-10.69-3.79c0-0.3,0.15-0.89,0.45-1.78
		c0.3-0.89,0.45-1.82,0.45-2.79c0-0.96-0.37-1.45-1.11-1.45c-3.12,0-5.57,0.67-7.35,2.01c-1.78,1.34-2.97,2-3.56,2
		c-1.34,0-2.01-0.89-2.01-2.67c0-3.27,2.34-6.16,7.02-8.69c4.68-2.52,9.32-3.79,13.92-3.79c4.6,0,8.84,1.56,12.7,4.68
		C238.36,391.47,240.29,394.51,240.29,397.48z"/>
	<path class="st0" d="M467.55,334.21c3.12,3.27,6.54,4.9,10.25,4.9s6.98-0.18,9.8-0.56c2.82-0.37,4.97-0.56,6.46-0.56
		c4.75,0,8.8,1.26,12.14,3.79c3.34,2.53,5.01,5.79,5.01,9.8c0,1.93-0.33,3.27-1,4.01c-0.67,0.75-3.45,1.93-8.35,3.56
		c-9.06,2.97-18.79,8.73-29.19,17.27c-10.4,8.54-18.49,18.01-24.29,28.41c-5.65,24.51-11.74,39.36-18.27,44.56
		c-6.54,5.2-19.24,7.8-38.1,7.8c-7.58,0-11.36-1.64-11.36-4.9c0-1.93,1.56-4.83,4.68-8.69c3.12-3.86,5.38-5.79,6.8-5.79
		c1.41,0,2.12,0.52,2.12,1.56c0,1.04-0.11,2-0.33,2.9c-0.22,0.89-0.33,1.93-0.33,3.12c0,1.19,0.59,1.78,1.78,1.78
		c1.19,0,4.64-1.78,10.36-5.35c5.72-3.56,10.06-7.65,13.03-12.25c2.97-4.6,5.72-11.21,8.24-19.83
		c-12.63-3.12-21.06-7.46-25.29-13.03c-4.23-5.57-6.35-9.17-6.35-10.81c0-1.63,0.81-2.45,2.45-2.45
		c12.48-0.45,26.59-6.76,42.33-18.94c2.67-9.95,5.64-24.21,8.91-42.78c-6.83-9.21-10.25-15.74-10.25-19.61
		c0-4.46,2.52-6.68,7.58-6.68c3.71,0,8.87,1.49,15.48,4.46c6.61,2.97,9.91,7.5,9.91,13.59
		C471.78,315.72,470.37,322.62,467.55,334.21z M449.28,315.05c0.15-4.46-0.52-6.68-2.01-6.68c-0.75,0-1.11,0.67-1.11,2.01
		S447.2,313.26,449.28,315.05z M475.12,414.64c3.86,0,10.84,1.52,20.94,4.57c10.1,3.05,17.67,6.13,22.72,9.25
		c5.05,3.12,8.65,6.65,10.81,10.58c2.15,3.94,3.23,8.98,3.23,15.15c0,6.16-1.78,9.25-5.35,9.25c-1.49,0-4.34-1.19-8.58-3.56
		c-4.23-2.38-10.62-6.61-19.16-12.7c-8.54-6.09-16.9-12.77-25.07-20.05c-3.12-2.67-6.02-4.49-8.69-5.46
		c-2.67-0.96-7.72-1.89-15.15-2.79c-1.78-0.15-2.67-0.45-2.67-0.89c0-0.59,3.3-1.3,9.92-2.12
		C464.69,415.05,470.37,414.64,475.12,414.64z M473.12,344.46c-2.08-2.23-4.46-3.79-7.13-4.68c-0.59,2.82-1.41,6.17-2.45,10.03
		C465.17,348.62,468.36,346.83,473.12,344.46z"/>
	<path class="st0" d="M714.86,384.12c7.87,0,14.11,0.41,18.72,1.23c4.6,0.82,8.28,3.31,11.03,7.46c2.75,4.16,4.12,6.83,4.12,8.02
		c0,1.19-1.19,2.04-3.56,2.56c-2.38,0.52-4.34,0.78-5.9,0.78s-5.42-0.89-11.59-2.67c-6.17-1.78-11.25-2.97-15.26-3.56
		c-4.01-0.59-10.03-0.89-18.05-0.89c0.45,17.38-0.41,35.84-2.56,55.37c-2.15,19.53-3.83,30.41-5.01,32.64
		c-1.19,2.23-2.38,3.34-3.56,3.34c-0.89,0-1.56-0.75-2.01-2.23c-0.45-1.49-1.56-7.88-3.34-19.16c-1.78-11.29-2.67-25.92-2.67-43.89
		c0-6.09,0.07-13.29,0.22-21.61c-6.24,1.19-16.19,4.64-29.86,10.36c-13.67,5.72-23.95,10.55-30.86,14.48
		c-6.91,3.94-11.22,6.13-12.92,6.57c-1.71,0.45-4.09,0.67-7.13,0.67c-3.05,0-5.09-0.26-6.13-0.78c-1.04-0.52-1.78-1.86-2.23-4.01
		c-0.45-2.15-0.67-4.86-0.67-8.13c0-3.71,1.74-6.2,5.24-7.46c3.49-1.26,8.72-2.56,15.71-3.9c13.22-2.52,25.1-7.94,35.65-16.26
		c0.45-5.2-0.75-7.8-3.57-7.8c-2.82,0-4.23-2.15-4.23-6.46c0-7.58,1.48-13.14,4.46-16.71c-3.86-1.04-6.83-2.75-8.91-5.12
		c-2.08-2.38-3.12-4.31-3.12-5.79c0-1.48,0.56-2.75,1.67-3.79c1.11-1.04,2.23-1.41,3.34-1.11c1.11,0.3,2.34,0.45,3.68,0.45
		c3.71,0,9.95-1.08,18.72-3.23c8.76-2.15,14.07-3.79,15.93-4.9c1.86-1.11,2.79-2.56,2.79-4.34c0-1.19-0.45-1.78-1.34-1.78
		c-0.89,0-1.78,0.3-2.67,0.89c-7.73,4.31-14.26,7.32-19.61,9.02c-5.35,1.71-8.35,2.56-9.02,2.56c-0.67,0-1-0.22-1-0.67
		s0.45-0.89,1.34-1.34c4.75-1.93,7.87-3.49,9.36-4.68c4.75-3.71,9.8-7.05,15.15-10.03c-13.81,0.15-21.98-0.18-24.51-1
		c-2.53-0.81-4.34-1.97-5.46-3.45c-1.11-1.48-1.67-4.49-1.67-9.02c0-4.53,0.45-7.72,1.34-9.58c0.89-1.86,3.19-4.34,6.91-7.46
		c3.71-3.12,6.57-5.87,8.58-8.24c2-2.38,3.01-4.6,3.01-6.68l-0.22-2.45c0-1.34,0.45-2,1.34-2s1.67,0.37,2.34,1.11
		c0.67,0.75,2.49,4.49,5.46,11.25c2.97,6.76,4.68,11.4,5.12,13.93c2.97,0.45,8.06-0.48,15.26-2.79c7.2-2.3,11.66-4.04,13.37-5.24
		c1.71-1.19,3.01-1.78,3.9-1.78c2.67,0,5.68,2.01,9.02,6.02c3.34,4.01,5.01,6.91,5.01,8.69c0,1.34-1.82,3.16-5.46,5.46
		c-3.64,2.3-8.8,4.57-15.49,6.8l0.22,9.36c2.52-0.59,4.64-0.89,6.35-0.89c1.71,0,3.38,0.67,5.01,2.01c1.63,1.34,3.45,3.31,5.46,5.9
		c2,2.6,3.01,4.27,3.01,5.01c0,0.89-0.45,1.67-1.34,2.34c-0.89,0.67-1.86,1-2.9,1l-3.12-0.22c-2.67,0-6.61,0.82-11.81,2.45
		c0.15,12.78,0.3,21.02,0.45,24.73C700.45,377.88,707.29,381.44,714.86,384.12z M596.55,415.75c0.3,0,0.93-0.22,1.89-0.67
		c0.96-0.45,1.45-0.78,1.45-1c0-0.22-0.37-0.33-1.11-0.33c-1.93,0-2.9,0.33-2.9,1S596.11,415.75,596.55,415.75z M675.42,390.8
		v-36.54c-10.99,3.86-17.16,6.2-18.49,7.02c-1.34,0.82-2.01,1.67-2.01,2.56c0,0.89,0.74,1.26,2.23,1.11h2.23
		c2.38,0,5.38,1.6,9.02,4.79c3.64,3.2,5.46,6.05,5.46,8.58c0,1.78-1.34,4.12-4.01,7.02c-2.67,2.9-6.91,6.13-12.7,9.69
		C664.58,392.96,670.67,391.55,675.42,390.8z M701.49,382.11c-2.23-1.34-4.61-3.49-7.13-6.46c0,3.27,0.11,5.61,0.33,7.02
		c0.22,1.41,0.89,2.12,2.01,2.12c1.11,0,2.41-0.11,3.9-0.33c1.48-0.22,2.23-0.52,2.23-0.89
		C702.83,383.19,702.38,382.71,701.49,382.11z"/>
</g>
<g>
</g>
<g>
</g>
<g>
</g>
<g>
</g>
<g>
</g>
<g>
</g>
<g>
</g>
<g>
</g>
<g>
</g>
<g>
</g>
<g>
</g>
<g>
</g>
<g>
</g>
<g>
</g>
<g>
</g>
</svg>
