<?xml version="1.0" encoding="utf-8"?>
<!-- Generator: Adobe Illustrator 25.3.1, SVG Export Plug-In . SVG Version: 6.00 Build 0)  -->
<svg version="1.1" id="图层_1" xmlns="http://www.w3.org/2000/svg" xmlns:xlink="http://www.w3.org/1999/xlink" x="0px" y="0px"
	 viewBox="0 0 496 683" style="enable-background:new 0 0 496 683;" xml:space="preserve">
<style type="text/css">
	.st0{fill:#FF0000;}
	.st1{fill:#FFFFFF;}
	.st2{fill:#FFFF00;}
</style>
<g>
	<path class="st0" d="M253.74,424.67c-4.68,0-9.44-0.12-14.14-0.37C129.47,418.5,43.42,346.37,47.78,263.5
		c2.01-38.27,23.06-73.72,59.26-99.83c36.07-26.01,83.74-40.34,134.23-40.34c4.68,0,9.44,0.13,14.14,0.37
		c53.37,2.81,102.73,21.09,138.96,51.49c36.2,30.37,54.97,69.18,52.86,109.3c-2.01,38.27-23.06,73.72-59.26,99.83
		C351.9,410.34,304.23,424.67,253.74,424.67z"/>
	<path d="M241.27,123.84c4.67,0,9.41,0.13,14.11,0.37c53.27,2.8,102.51,21.05,138.67,51.38c17.55,14.73,31.06,31.5,40.14,49.86
		c9.39,18.98,13.61,38.84,12.55,59.03c-2,38.11-22.97,73.43-59.05,99.45c-35.99,25.95-83.55,40.24-133.94,40.24
		c-4.67,0-9.42-0.13-14.11-0.37c-53.27-2.8-102.51-21.05-138.67-51.38c-17.55-14.73-31.06-31.5-40.14-49.86
		c-9.39-18.98-13.61-38.84-12.55-59.03c2-38.11,22.97-73.43,59.05-99.45C143.31,138.13,190.88,123.84,241.27,123.84L241.27,123.84
		 M241.26,122.84c-104.26,0-189.79,60.94-193.98,140.64c-4.38,83.28,81.72,155.5,192.3,161.32c4.76,0.25,9.48,0.37,14.17,0.37
		c104.26,0,189.8-60.94,193.98-140.64c4.38-83.28-81.72-155.5-192.3-161.32C250.67,122.96,245.95,122.83,241.26,122.84
		L241.26,122.84z"/>
</g>
<g>
	<rect x="211.5" y="86.5" class="st0" width="105" height="67"/>
	<path class="st1" d="M316,87v66H212V87H316 M317,86H211v68h106V86L317,86z"/>
</g>
<g>
	<rect x="258.5" y="39.5" class="st0" width="9" height="75"/>
	<path class="st1" d="M267,40v74h-8V40H267 M268,39h-10v76h10V39L268,39z"/>
</g>
<g>
	<rect x="160.5" y="390.5" class="st0" width="6" height="237"/>
	<path class="st1" d="M166,391v236h-5V391H166 M167,390h-7v238h7V390L167,390z"/>
</g>
<g>
	<rect x="200.5" y="390.5" class="st0" width="13" height="271"/>
	<path class="st1" d="M213,391v270h-12V391H213 M214,390h-14v272h14V390L214,390z"/>
</g>
<g>
	<rect x="255.5" y="390.5" class="st0" width="16" height="286"/>
	<path class="st1" d="M271,391v285h-15V391H271 M272,390h-17v287h17V390L272,390z"/>
</g>
<g>
	<rect x="317.5" y="390.5" class="st0" width="7" height="263"/>
	<path class="st1" d="M324,391v262h-6V391H324 M325,390h-8v264h8V390L325,390z"/>
</g>
<g>
	<g>
		<path d="M163.11,158.73c-16.04,22-27.52,47.48-32.38,74.32c-4.74,26.19-3.35,53.28,4.25,78.81c4.39,14.73,10.77,28.89,18.75,42.02
			c1.22,2.01,4.09,2.95,6.16,1.61c2.02-1.3,2.92-4,1.61-6.16c-7.19-11.83-12.39-23-16.53-35.67c-1.98-6.06-3.61-12.23-4.89-18.47
			c-0.66-3.22-1.22-6.47-1.68-9.72c-0.02-0.15-0.2-1.45-0.05-0.36c-0.05-0.39-0.1-0.78-0.15-1.17c-0.08-0.65-0.16-1.3-0.23-1.95
			c-0.19-1.69-0.36-3.39-0.49-5.08c-0.52-6.39-0.67-12.8-0.44-19.21c0.11-3.14,0.32-6.27,0.61-9.4c0.15-1.57,0.32-3.13,0.51-4.69
			c0.05-0.39,0.1-0.78,0.15-1.17c0.11-0.88,0.02-0.15,0,0.03c0.13-0.91,0.26-1.82,0.4-2.73c1.99-12.89,5.5-25.53,10.37-37.63
			c0.3-0.75,0.61-1.5,0.93-2.25c-0.38,0.91,0.14-0.33,0.18-0.42c0.21-0.5,0.43-1,0.65-1.49c0.77-1.75,1.57-3.48,2.39-5.2
			c1.61-3.35,3.32-6.66,5.13-9.9c3.77-6.77,7.98-13.29,12.54-19.55c1.39-1.91,0.39-5.1-1.61-6.16
			C166.93,155.88,164.6,156.69,163.11,158.73L163.11,158.73z"/>
	</g>
</g>
<g>
	<path class="st2" d="M232.98,253.61l12.5-16.67c0.66-0.92,1.19-1.39,1.59-1.39c0.4,0,0.6,0.27,0.6,0.79
		c0,1.32-2.32,7.44-6.95,18.36c-4.63,10.92-11.51,22.86-20.64,35.82c-1.06,7.94-1.59,15.75-1.59,23.42c0,7.67,1.12,14.16,3.37,19.45
		c0.79,1.85,1.19,3.77,1.19,5.76c0,6.35-1.22,9.53-3.67,9.53c-2.45,0-5.1-1.89-7.94-5.66c-2.85-3.77-4.27-6.45-4.27-8.04
		s0.2-3.08,0.6-4.47s0.6-2.85,0.6-4.37s-0.13-4.1-0.4-7.74c-0.27-3.64-0.33-7.31-0.2-11.01c-4.9,7.54-8.9,11.31-12.01,11.31
		c-3.11,0-5.53-2.21-7.24-6.65c-1.72-4.43-2.58-7.57-2.58-9.43c0-1.85,0.3-3.24,0.89-4.17c0.6-0.92,1.89-1.92,3.87-2.98
		c4.76-2.64,11.11-7.94,19.05-15.88c0.4-4.89,0.83-8.43,1.29-10.62c0.46-2.18,0.69-3.8,0.69-4.86c0-1.06-0.2-1.59-0.59-1.59
		c-0.4,0-0.86,0.27-1.39,0.79c-9,9.92-16.41,14.88-22.23,14.88c-6.62,0-11.81-2.98-15.58-8.93s-5.66-9.72-5.66-11.31
		c0-0.4,0.26-0.6,0.79-0.6c0.53,0,1.72,0.46,3.57,1.39c1.85,0.93,3.77,1.39,5.76,1.39c3.57,0,7.28-1.52,11.11-4.56
		c1.19-0.92,3.5-2.45,6.95-4.56c3.44-2.11,6.55-3.84,9.33-5.16c2.78-1.32,4.53-2.65,5.26-3.97c0.73-1.32,1.75-2.21,3.08-2.68
		c1.32-0.46,2.78-0.69,4.37-0.69c3.31,0,6.55,1.32,9.72,3.97C229.41,245.14,231.66,248.84,232.98,253.61z M212.54,196.84
		c0.92,0,2.25,0.27,3.97,0.79c1.72,0.53,4.56,0.79,8.53,0.79c3.97,0,7.87,1.76,11.71,5.26c3.84,3.51,5.76,7.38,5.76,11.61
		c0,2.51-0.27,4.17-0.79,4.96c-0.53,0.79-1.49,1.19-2.88,1.19s-3.41-0.36-6.05-1.09c-2.65-0.73-4.57-1.09-5.76-1.09
		s-2.88,0.66-5.06,1.98c-2.18,1.32-5.13,1.98-8.83,1.98c-9.53,0-14.29-0.86-14.29-2.58c0-0.53,0.53-0.99,1.59-1.39
		c4.37-1.72,7.87-3.64,10.52-5.76l5.36-3.97c0.79-0.66,1.19-1.65,1.19-2.98c0-2.51-1.52-4.96-4.56-7.34
		c-0.93-0.79-1.39-1.39-1.39-1.79S211.88,196.84,212.54,196.84z M251.44,292.7c6.61-8.6,15.38-14.29,26.3-17.07
		c10.92-2.78,19.35-4.17,25.3-4.17c5.95,0,11.81,1.39,17.56,4.17c5.76,2.78,8.63,6.48,8.63,11.11c0,5.82-1.69,14.92-5.06,27.29
		s-7.34,20.74-11.91,25.11c-4.57,4.37-8.11,6.55-10.62,6.55c-1.46,0-3.11-1.13-4.96-3.37c-1.85-2.25-3.9-3.94-6.15-5.06
		c-2.25-1.13-4.37-3.27-6.35-6.45c-1.98-0.66-7.41,0.73-16.27,4.17c-1.85,0.79-3.77,1.19-5.76,1.19c-5.56,0-9.86-2.98-12.9-8.93
		c-3.05-5.95-4.83-12.37-5.36-19.25c-0.66-6.75-1.39-10.92-2.18-12.5s-1.49-3.5-2.08-5.75c-0.6-2.25-0.89-4.17-0.89-5.76
		s1.06-3.21,3.18-4.86c2.12-1.65,8.53-5.66,19.25-12.01c-5.82-7.67-8.73-15.55-8.73-23.62c0-3.57,1.09-6.88,3.28-9.92
		c2.18-3.04,6.65-7.41,13.4-13.1c-6.35-3.7-9.86-6.75-10.52-9.13c-0.4-1.59-0.96-2.91-1.69-3.97c-0.73-1.06-1.09-1.98-1.09-2.78
		s1.82-1.19,5.46-1.19c3.64,0,8.6-0.96,14.88-2.88c6.28-1.92,10.55-3.7,12.8-5.36c2.25-1.65,4.17-2.48,5.76-2.48s4.5,1.32,8.73,3.97
		c4.23,2.65,6.35,5.62,6.35,8.93c0,1.85-0.73,3.41-2.18,4.66c-1.46,1.26-3.57,1.95-6.35,2.08c-2.78,0.13-5.79,1.06-9.03,2.78
		c-3.24,1.72-7.58,4.66-13,8.83c-5.43,4.17-8.87,6.92-10.32,8.24c-1.46,1.32-2.18,2.22-2.18,2.68c0,0.46,0.06,0.89,0.2,1.29
		c8.07-3.31,13.76-6.18,17.07-8.63c3.31-2.45,6.78-3.67,10.42-3.67c3.64,0,6.71,1.16,9.23,3.47c2.51,2.32,3.77,5.85,3.77,10.62
		c0,3.31-1.39,5.95-4.17,7.94c-3.44,2.65-5.16,4.83-5.16,6.55c0,1.72,0.23,3.11,0.69,4.17c0.46,1.06,0.69,1.79,0.69,2.18
		c0,1.32-2.05,2.65-6.15,3.97c-9.26,2.78-17.66,6.29-25.21,10.52c-1.46,0.79-2.88,1.19-4.27,1.19c-1.39,0-2.28-0.6-2.68-1.79
		c-12.04,2.91-18.06,5.82-18.06,8.73c0,1.19,1.06,2.61,3.17,4.27C248.39,287.31,250.11,289.66,251.44,292.7z M275.65,296.67
		c0-2.65-0.53-4.43-1.59-5.36c-3.71,0.4-7.41,1.23-11.11,2.48c-3.71,1.26-5.89,2.48-6.55,3.67c-0.66,1.19-0.99,2.91-0.99,5.16
		c0,2.25,0.4,5.86,1.19,10.82c0.79,4.96,1.52,7.77,2.18,8.44c0.66,0.66,1.39,0.99,2.18,0.99c2.12,0,6.02-2.25,11.71-6.75
		c0.4-0.66,0.92-1.72,1.59-3.18c-1.32,0.4-2.65,0.6-3.97,0.6c-3.31,0-5.76-1.12-7.34-3.37c-1.59-2.25-2.38-4.07-2.38-5.46
		c0-1.39,0.82-2.25,2.48-2.58c1.65-0.33,3.74-0.99,6.25-1.98C271.81,299.15,273.93,298,275.65,296.67z M268.51,253.01
		c0.53,0.66,1.32,0.99,2.38,0.99c2.78,0,5.89-1.45,9.33-4.37c3.44-2.91,5.16-4.96,5.16-6.15c0-0.26-0.17-0.4-0.5-0.4
		c-0.33,0-0.69,0.07-1.09,0.2c-4.37,1.72-9.33,2.85-14.88,3.37c0.13,0.66,0.2,1.52,0.2,2.58C269.1,250.3,268.9,251.56,268.51,253.01
		z M292.72,322.08c2.64,2.78,4.53,4.17,5.66,4.17c1.12,0,2.55-1.42,4.27-4.27c1.72-2.84,3.18-7.87,4.37-15.08
		c1.19-7.21,1.79-12.57,1.79-16.08c0-3.5-0.43-5.59-1.29-6.25c-0.86-0.66-2.81-0.99-5.85-0.99c-7.01,0-12.3,0.79-15.88,2.38
		c0.79,1.59,1.52,3.9,2.18,6.95c2.51-0.26,4.7,0.7,6.55,2.88c1.85,2.18,2.78,4.43,2.78,6.75c0,2.32-0.66,3.94-1.98,4.86
		c-5.69,4.1-8.8,7.81-9.33,11.11c0.79,0.4,1.45,0.59,1.98,0.59h1.59C291.26,319.1,292.32,320.09,292.72,322.08z"/>
</g>
<g>
	<g>
		<path d="M237.72,169.74c4.45,14.14,8.9,28.28,12.63,42.63c1.84,7.08,3.51,14.2,4.91,21.37c1.43,7.33,2.46,13.96,3.18,20.89
			c1.34,12.91,1.5,25.92-0.02,38.82c-0.05,0.4-0.09,0.79-0.14,1.19c-0.02,0.14-0.19,1.46-0.05,0.38c-0.09,0.66-0.18,1.31-0.28,1.97
			c-0.24,1.57-0.5,3.14-0.78,4.71c-0.55,2.99-1.18,5.97-1.92,8.93c-1.46,5.87-3.31,11.65-5.58,17.26c-0.15,0.36-0.3,0.73-0.45,1.09
			c-0.2,0.48-0.2,0.48,0,0.01c-0.1,0.24-0.21,0.48-0.31,0.72c-0.31,0.72-0.63,1.43-0.96,2.15c-0.71,1.54-1.45,3.07-2.23,4.57
			c-1.55,3.01-3.24,5.95-5.06,8.8c-0.91,1.42-1.86,2.83-2.84,4.2c-0.45,0.64-0.91,1.27-1.38,1.89c-0.23,0.31-0.47,0.62-0.71,0.93
			c0.61-0.79-0.4,0.5-0.5,0.63c-2.13,2.66-4.4,5.2-6.79,7.62c-1.66,1.68-1.8,4.71,0,6.36c1.79,1.64,4.6,1.79,6.36,0
			c17.81-18.01,28-42.27,31.77-67.09c4.28-28.14,0.65-56.54-6.08-84.01c-4-16.33-9.04-32.38-14.09-48.42
			c-0.71-2.24-3.16-3.91-5.54-3.14C238.61,164.94,236.96,167.34,237.72,169.74L237.72,169.74z"/>
	</g>
</g>
<g>
	<g>
		<path d="M351.99,172.09c2.97,15.85,5.08,30.58,6.63,46.42c1.54,15.69,2.42,31.46,2.58,47.22c0.07,6.88-0.03,13.77-0.49,20.64
			c-0.23,3.43-0.55,6.86-0.98,10.27c-0.01,0.09-0.2,1.49-0.06,0.5c-0.06,0.42-0.12,0.85-0.18,1.27c-0.12,0.85-0.26,1.69-0.4,2.53
			c-0.3,1.82-0.64,3.64-1.02,5.44c-0.7,3.31-1.54,6.6-2.54,9.84c-0.46,1.48-0.95,2.94-1.48,4.4c-0.29,0.79-0.59,1.58-0.9,2.37
			c-0.15,0.39-0.31,0.78-0.47,1.17c-0.2,0.49-0.22,0.52-0.04,0.09c-0.11,0.26-0.22,0.52-0.34,0.77c-1.36,3.1-2.91,6.12-4.65,9.03
			c-0.87,1.45-1.78,2.87-2.74,4.26c-0.4,0.58-0.8,1.15-1.21,1.72c-0.25,0.34-0.5,0.68-0.75,1.01c-0.17,0.22-0.34,0.45-0.51,0.67
			c0.28-0.36,0.26-0.33-0.07,0.09c-4.72,5.96-10.09,11.33-15.82,16.32c-2.88,2.51-5.85,4.93-8.86,7.29
			c-0.33,0.26-0.67,0.52-1.01,0.79c-0.22,0.17-0.45,0.35-0.67,0.52c0.35-0.27,0.32-0.25-0.1,0.08c-0.79,0.6-1.57,1.21-2.36,1.8
			c-1.58,1.19-3.16,2.38-4.74,3.56c-1.88,1.4-3.03,3.96-1.61,6.16c1.2,1.86,4.14,3.12,6.16,1.61c11.37-8.48,22.8-17.16,32.16-27.89
			c4.68-5.37,8.88-11.2,12.17-17.53c3.36-6.45,5.93-13.34,7.78-20.38c3.61-13.8,4.64-28.19,4.73-42.41
			c0.1-15.8-0.68-31.63-2.05-47.36c-1.6-18.33-4.11-36.6-7.5-54.68c-0.43-2.32-3.36-3.85-5.54-3.14
			C352.65,167.35,351.52,169.6,351.99,172.09L351.99,172.09z"/>
	</g>
</g>
<g>
</g>
<g>
</g>
<g>
</g>
<g>
</g>
<g>
</g>
<g>
</g>
<g>
</g>
<g>
</g>
<g>
</g>
<g>
</g>
<g>
</g>
<g>
</g>
<g>
</g>
<g>
</g>
<g>
</g>
</svg>
