<?xml version="1.0" encoding="utf-8"?>
<!-- Generator: Adobe Illustrator 25.3.1, SVG Export Plug-In . SVG Version: 6.00 Build 0)  -->
<svg version="1.1" id="图层_1" xmlns="http://www.w3.org/2000/svg" xmlns:xlink="http://www.w3.org/1999/xlink" x="0px" y="0px"
	 viewBox="0 0 189 477" style="enable-background:new 0 0 189 477;" xml:space="preserve">
<style type="text/css">
	.st0{fill:#FF0000;}
	.st1{fill:#FBB03B;}
	.st2{fill:none;stroke:#FF0000;stroke-width:5;stroke-miterlimit:10;}
	.st3{fill:#FFFF00;}
</style>
<g>
	
		<rect x="29.86" y="108.51" transform="matrix(0.4101 -0.9121 0.9121 0.4101 -70.0264 124.4167)" class="st0" width="62.61" height="15.65"/>
	<rect x="69.49" y="85.09" transform="matrix(0.4101 -0.9121 0.9121 0.4101 -42.4541 120.2044)" width="4.4" height="15.65"/>
	<path class="st1" d="M50.09,142.04c1.4-0.12,1.5-1.79,0.34-2.42c-0.56-0.31-0.89-0.4-1.51-0.57c-1.68-0.43-2.02,2.1-0.33,2.53
		c0.27,0.12,0.54,0.24,0.8,0.36c0.1-0.81,0.24-1.61,0.34-2.42c-1.85,0.19-4.02,0.12-5.7,0.87c-1.07,0.48-1.13,2.28,0.34,2.46
		c1.67,0.22,3.35,0.43,5.02,0.65c1.47,0.18,2.14-1.77,0.71-2.42c-1.38-0.62-2.72-1.11-4.2-1.4c-1.52-0.31-2.09,1.79-0.71,2.42
		c1.52,0.68,3.01,1.41,4.49,2.18c0.21-0.82,0.46-1.62,0.71-2.42c-1.44-0.38-2.87-0.54-4.36-0.57c-1.64-0.04-1.34,2.13-0.01,2.52
		c2.93,0.89,5.69,2.13,8.34,3.64c1.32,0.76,2.17-0.9,1.59-1.86c-0.99-1.62-1.99-3.2-3.13-4.73c-0.83-1.13-1.58-2.32-2.98-2.79
		c-2.64-0.81-5.7,0.39-7.67,1.91c-1.32,1.02,0.3,3.14,1.62,2.12l0,0c1.87-1.41,4.39-2.48,6.39-0.5c1.48,1.47,2.58,3.68,3.64,5.39
		c0.54-0.61,1.04-1.25,1.59-1.86c-2.89-1.68-5.88-2.91-9.03-3.9c-0.01,0.85,0,1.66-0.01,2.52c1.27,0.04,2.42,0.23,3.68,0.53
		c1.59,0.39,1.96-1.74,0.71-2.42c-1.48-0.77-2.97-1.5-4.49-2.18c-0.21,0.82-0.46,1.62-0.71,2.42c1.24,0.23,2.37,0.69,3.53,1.21
		c0.21-0.82,0.46-1.62,0.71-2.42c-1.67-0.22-3.35-0.43-5.02-0.65"/>
</g>
<line class="st2" x1="81" y1="33" x2="125" y2="454"/>
<g>
	
		<rect x="29.91" y="200.23" transform="matrix(0.591 -0.8067 0.8067 0.591 -142.7963 134.4764)" class="st0" width="62.61" height="15.65"/>
	<rect x="74.18" y="179.51" transform="matrix(0.591 -0.8067 0.8067 0.591 -119.8789 138.2453)" width="4.4" height="15.65"/>
	<path class="st1" d="M45.03,230.88c1.39,0.17,1.84-1.44,0.84-2.3c-0.48-0.42-0.79-0.58-1.36-0.87c-1.55-0.77-2.41,1.63-0.85,2.41
		c0.24,0.17,0.47,0.35,0.71,0.52c0.27-0.78,0.57-1.52,0.84-2.3c-1.85-0.2-3.96-0.72-5.76-0.34c-1.15,0.25-1.58,1.99-0.18,2.48
		c1.59,0.56,3.18,1.12,4.77,1.68c1.4,0.48,2.46-1.29,1.2-2.21c-1.22-0.9-2.43-1.66-3.81-2.25c-1.43-0.62-2.42,1.32-1.2,2.21
		c1.34,0.98,2.65,2.01,3.94,3.07c0.37-0.76,0.79-1.49,1.2-2.21c-1.33-0.67-2.69-1.12-4.14-1.46c-1.6-0.38-1.75,1.81-0.53,2.46
		c2.68,1.48,5.12,3.27,7.4,5.3c1.14,1.01,2.31-0.43,1.94-1.49c-0.63-1.79-1.28-3.55-2.07-5.28c-0.58-1.28-1.07-2.6-2.34-3.35
		c-2.41-1.34-5.65-0.81-7.9,0.27c-1.5,0.72-0.36,3.13,1.14,2.41l0,0c2.12-0.99,4.81-1.51,6.36,0.84c1.14,1.75,1.76,4.14,2.44,6.03
		c0.66-0.49,1.28-1,1.94-1.49c-2.48-2.24-5.14-4.07-8.02-5.69c-0.19,0.83-0.34,1.63-0.53,2.46c1.24,0.3,2.32,0.73,3.49,1.28
		c1.48,0.72,2.28-1.3,1.2-2.21c-1.28-1.06-2.6-2.08-3.94-3.07c-0.37,0.76-0.79,1.49-1.2,2.21c1.16,0.49,2.18,1.17,3.2,1.92
		c0.37-0.76,0.79-1.49,1.2-2.21c-1.59-0.56-3.18-1.12-4.77-1.68"/>
</g>
<g>
	
		<rect x="46.88" y="289.55" transform="matrix(0.3537 -0.9354 0.9354 0.3537 -227.6249 265.3134)" class="st0" width="62.61" height="15.65"/>
	<rect x="85.06" y="265.53" transform="matrix(0.3537 -0.9354 0.9354 0.3537 -199.2892 258.2863)" width="4.4" height="15.65"/>
	<path class="st1" d="M68.69,323.7c1.39-0.21,1.39-1.88,0.19-2.44c-0.58-0.27-0.91-0.35-1.54-0.48c-1.71-0.33-1.88,2.22-0.18,2.55
		c0.27,0.1,0.55,0.21,0.82,0.31c0.05-0.82,0.14-1.62,0.19-2.44c-1.84,0.3-4.01,0.37-5.64,1.22c-1.04,0.55-0.99,2.34,0.49,2.43
		c1.68,0.11,3.37,0.23,5.05,0.34c1.48,0.09,2.03-1.9,0.56-2.45c-1.42-0.54-2.78-0.95-4.27-1.15c-1.54-0.22-1.98,1.92-0.56,2.45
		c1.56,0.59,3.09,1.22,4.61,1.9c0.16-0.83,0.36-1.64,0.56-2.45c-1.46-0.29-2.9-0.36-4.38-0.3c-1.64,0.06-1.2,2.21,0.15,2.51
		c2.97,0.71,5.81,1.78,8.54,3.13c1.37,0.67,2.12-1.03,1.47-1.95c-1.08-1.56-2.18-3.07-3.41-4.53c-0.9-1.07-1.72-2.22-3.15-2.6
		c-2.68-0.65-5.66,0.73-7.54,2.38c-1.25,1.1,0.5,3.12,1.75,2.02l0,0c1.78-1.52,4.23-2.74,6.35-0.89c1.57,1.38,2.8,3.52,3.96,5.16
		c0.51-0.65,0.97-1.31,1.47-1.95c-2.99-1.5-6.04-2.55-9.25-3.34c0.04,0.85,0.1,1.66,0.15,2.51c1.27-0.04,2.43,0.08,3.7,0.3
		c1.61,0.3,1.85-1.86,0.56-2.45c-1.52-0.68-3.06-1.31-4.61-1.9c-0.16,0.83-0.36,1.64-0.56,2.45c1.25,0.16,2.41,0.54,3.6,0.99
		c0.16-0.83,0.36-1.64,0.56-2.45c-1.68-0.11-3.37-0.23-5.05-0.34"/>
</g>
<g>
	
		<rect x="54.97" y="375.58" transform="matrix(0.3537 -0.9354 0.9354 0.3537 -302.8585 328.485)" class="st0" width="62.61" height="15.65"/>
	<rect x="93.16" y="351.56" transform="matrix(0.3537 -0.9354 0.9354 0.3537 -274.5227 321.4579)" width="4.4" height="15.65"/>
	<path class="st1" d="M76.79,409.73c1.39-0.21,1.39-1.88,0.19-2.44c-0.58-0.27-0.91-0.35-1.54-0.48c-1.71-0.33-1.88,2.22-0.18,2.55
		c0.27,0.1,0.55,0.21,0.82,0.31c0.05-0.82,0.14-1.62,0.19-2.44c-1.84,0.3-4.01,0.37-5.64,1.22c-1.04,0.55-0.99,2.34,0.49,2.43
		c1.68,0.11,3.37,0.23,5.05,0.34c1.48,0.09,2.03-1.9,0.56-2.45c-1.42-0.54-2.78-0.95-4.27-1.15c-1.54-0.22-1.98,1.92-0.56,2.45
		c1.56,0.59,3.09,1.22,4.61,1.9c0.16-0.83,0.36-1.64,0.56-2.45c-1.46-0.29-2.9-0.36-4.38-0.3c-1.64,0.06-1.2,2.21,0.15,2.51
		c2.97,0.71,5.81,1.78,8.54,3.13c1.37,0.67,2.12-1.03,1.47-1.95c-1.08-1.56-2.18-3.07-3.41-4.53c-0.9-1.07-1.72-2.22-3.15-2.6
		c-2.68-0.65-5.66,0.73-7.54,2.38c-1.25,1.1,0.5,3.12,1.75,2.02l0,0c1.78-1.52,4.23-2.74,6.35-0.89c1.57,1.38,2.8,3.52,3.96,5.16
		c0.51-0.65,0.97-1.31,1.47-1.95c-2.99-1.5-6.04-2.55-9.25-3.34c0.04,0.85,0.1,1.66,0.15,2.51c1.27-0.04,2.43,0.08,3.7,0.3
		c1.61,0.3,1.85-1.86,0.56-2.45c-1.52-0.68-3.06-1.31-4.61-1.9c-0.16,0.83-0.36,1.64-0.56,2.45c1.25,0.16,2.41,0.54,3.6,0.99
		c0.16-0.83,0.36-1.64,0.56-2.45c-1.68-0.11-3.37-0.23-5.05-0.34"/>
</g>
<g>
	
		<rect x="117.45" y="106.1" transform="matrix(0.8195 -0.5731 0.5731 0.8195 -56.1321 96.5898)" class="st0" width="15.65" height="62.61"/>
	<rect x="102.73" y="114.16" transform="matrix(0.8195 -0.5731 0.5731 0.8195 -46.7286 84.3592)" width="15.65" height="4.4"/>
	<path class="st1" d="M141.67,160.08c0.61-1.26-0.77-2.21-1.91-1.53c-0.55,0.32-0.8,0.56-1.27,1.01c-1.23,1.22,0.77,2.81,2,1.58
		c0.24-0.17,0.48-0.34,0.72-0.5c-0.65-0.5-1.26-1.03-1.91-1.53c-0.79,1.69-1.96,3.52-2.17,5.34c-0.14,1.17,1.38,2.14,2.29,0.97
		c1.04-1.33,2.08-2.65,3.13-3.98c0.91-1.17-0.43-2.74-1.71-1.85c-1.24,0.87-2.35,1.76-3.36,2.88c-1.05,1.15,0.47,2.72,1.71,1.85
		c1.36-0.95,2.75-1.87,4.17-2.74c-0.6-0.6-1.15-1.22-1.71-1.85c-1.06,1.04-1.93,2.19-2.72,3.45c-0.88,1.39,1.15,2.24,2.16,1.3
		c2.26-2.06,4.75-3.8,7.4-5.29c1.33-0.75,0.34-2.33-0.78-2.32c-1.9,0.02-3.77,0.07-5.67,0.26c-1.39,0.14-2.8,0.17-3.92,1.13
		c-2.05,1.85-2.59,5.09-2.29,7.57c0.2,1.65,2.85,1.35,2.65-0.3l0,0c-0.26-2.33,0.12-5.04,2.84-5.75c2.02-0.52,4.48-0.33,6.49-0.36
		c-0.25-0.78-0.54-1.53-0.78-2.32c-2.92,1.63-5.51,3.56-7.97,5.75c0.73,0.45,1.43,0.85,2.16,1.3c0.68-1.07,1.44-1.96,2.34-2.89
		c1.15-1.17-0.49-2.58-1.71-1.85c-1.42,0.87-2.81,1.79-4.17,2.74c0.6,0.6,1.15,1.22,1.71,1.85c0.83-0.94,1.81-1.68,2.85-2.41
		c-0.6-0.6-1.15-1.22-1.71-1.85c-1.04,1.33-2.08,2.65-3.13,3.98"/>
</g>
<g>
	
		<rect x="134.16" y="211.14" transform="matrix(0.8841 -0.4673 0.4673 0.8841 -96.8418 94.4558)" class="st0" width="15.65" height="62.61"/>
	<rect x="122.16" y="217.54" transform="matrix(0.8841 -0.4673 0.4673 0.8841 -87.6237 86.2165)" width="15.65" height="4.4"/>
	<path class="st1" d="M155.45,266.97c0.76-1.18-0.49-2.29-1.7-1.76c-0.59,0.25-0.86,0.46-1.38,0.84c-1.38,1.06,0.42,2.88,1.79,1.82
		c0.26-0.14,0.52-0.27,0.78-0.41c-0.58-0.58-1.12-1.18-1.7-1.76c-0.99,1.58-2.38,3.25-2.82,5.03c-0.28,1.14,1.1,2.29,2.15,1.24
		c1.2-1.19,2.4-2.37,3.6-3.56c1.05-1.05-0.08-2.78-1.47-2.05c-1.34,0.71-2.55,1.46-3.69,2.45c-1.18,1.01,0.13,2.75,1.47,2.05
		c1.47-0.78,2.96-1.51,4.48-2.2c-0.52-0.67-0.99-1.36-1.47-2.05c-1.18,0.9-2.19,1.93-3.12,3.09c-1.04,1.27,0.86,2.37,1.98,1.55
		c2.5-1.76,5.18-3.18,8-4.34c1.41-0.58,0.63-2.27-0.49-2.4c-1.89-0.22-3.75-0.4-5.65-0.44c-1.4-0.03-2.8-0.18-4.03,0.64
		c-2.26,1.58-3.2,4.73-3.21,7.23c-0.01,1.66,2.66,1.69,2.67,0.03l0,0c0.03-2.34,0.74-4.98,3.53-5.35c2.07-0.27,4.49,0.23,6.49,0.44
		c-0.15-0.81-0.34-1.59-0.49-2.4c-3.1,1.25-5.91,2.85-8.62,4.72c0.67,0.53,1.31,1.02,1.98,1.55c0.81-0.98,1.67-1.77,2.68-2.58
		c1.29-1.01-0.17-2.62-1.47-2.05c-1.52,0.69-3.01,1.42-4.48,2.2c0.52,0.67,0.99,1.36,1.47,2.05c0.94-0.83,2-1.45,3.13-2.04
		c-0.52-0.67-0.99-1.36-1.47-2.05c-1.2,1.19-2.4,2.37-3.6,3.56"/>
</g>
<g>
	
		<rect x="141.45" y="314.1" transform="matrix(0.7973 -0.6035 0.6035 0.7973 -178.2158 160.0996)" class="st0" width="15.65" height="62.61"/>
	<rect x="125.95" y="322.73" transform="matrix(0.7973 -0.6035 0.6035 0.7973 -168.9998 146.5963)" width="15.65" height="4.4"/>
	<path class="st1" d="M166.51,367.45c0.56-1.28-0.85-2.18-1.96-1.46c-0.54,0.34-0.78,0.59-1.23,1.05c-1.19,1.27,0.87,2.77,2.06,1.51
		c0.23-0.18,0.47-0.35,0.7-0.53c-0.67-0.48-1.3-0.98-1.96-1.46c-0.73,1.72-1.82,3.59-1.97,5.42c-0.09,1.17,1.46,2.09,2.32,0.88
		c0.99-1.36,1.98-2.73,2.98-4.09c0.87-1.21-0.53-2.73-1.78-1.78c-1.21,0.92-2.28,1.85-3.24,3.01c-1,1.19,0.57,2.7,1.78,1.78
		c1.33-1,2.68-1.97,4.07-2.89c-0.62-0.57-1.2-1.18-1.78-1.78c-1.02,1.08-1.85,2.26-2.59,3.55c-0.83,1.42,1.23,2.2,2.21,1.21
		c2.18-2.14,4.6-3.97,7.19-5.57c1.3-0.8,0.25-2.34-0.87-2.29c-1.9,0.09-3.77,0.21-5.65,0.48c-1.39,0.19-2.8,0.28-3.88,1.28
		c-1.98,1.93-2.39,5.19-2,7.65c0.26,1.64,2.9,1.24,2.64-0.4l0,0c-0.34-2.32-0.07-5.04,2.63-5.85c2-0.6,4.47-0.5,6.47-0.61
		c-0.28-0.77-0.59-1.51-0.87-2.29c-2.86,1.73-5.37,3.76-7.75,6.05c0.75,0.42,1.46,0.8,2.21,1.21c0.64-1.1,1.36-2.01,2.23-2.97
		c1.11-1.21-0.59-2.56-1.78-1.78c-1.38,0.93-2.74,1.89-4.07,2.89c0.62,0.57,1.2,1.18,1.78,1.78c0.8-0.97,1.74-1.75,2.76-2.52
		c-0.62-0.57-1.2-1.18-1.78-1.78c-0.99,1.36-1.98,2.73-2.98,4.09"/>
</g>
<g>
	<g>
		<g>
			<path class="st3" d="M108.18,440.13c-12.37-24.84-36.97-39.78-60.98-51.7c-3.79-1.89-7.13,3.79-3.33,5.68
				c23.07,11.47,46.73,25.46,58.61,49.36C104.39,447.25,110.05,443.92,108.18,440.13L108.18,440.13z"/>
		</g>
	</g>
	<g>
		<g>
			<path class="st3" d="M107.83,442.82c5.31-14.45,10.68-33.24,26.97-38.7c3.99-1.34,2.28-7.7-1.75-6.34
				c-18.95,6.34-25.33,26.31-31.55,43.31C100.03,445.06,106.39,446.77,107.83,442.82L107.83,442.82z"/>
		</g>
	</g>
	<g>
		<g>
			<path class="st3" d="M100.38,440.56c-2.87-19.65,1.6-39.51,3.93-58.98c0.5-4.19-6.07-4.17-6.58,0
				c-2.39,20.2-6.67,40.35-3.68,60.74C94.63,446.48,100.97,444.71,100.38,440.56L100.38,440.56z"/>
		</g>
	</g>
	<g>
		<g>
			<path class="st3" d="M107.77,441.02c4.98-20.15,10.04-40.5,20.06-58.83c2.04-3.73-3.64-7.04-5.68-3.31
				c-10.28,18.84-15.61,39.71-20.72,60.41C100.42,443.37,106.76,445.12,107.77,441.02L107.77,441.02z"/>
		</g>
	</g>
	<g>
		<g>
			<path class="st3" d="M108.69,440.83c-4.58-22.69-11.56-45.41-27.45-62.91c-2.85-3.14-7.5,1.51-4.65,4.65
				c15.11,16.62,21.42,38.48,25.76,60.02C103.19,446.73,109.52,444.97,108.69,440.83L108.69,440.83z"/>
		</g>
	</g>
	<g>
		<g>
			<path class="st3" d="M106.89,437.23c-15.28-10.31-32.98-17.83-51.73-16.95c-4.21,0.2-4.23,6.78,0,6.58
				c17.67-0.83,34.03,6.36,48.42,16.05C107.09,445.28,110.38,439.58,106.89,437.23L106.89,437.23z"/>
		</g>
	</g>
	<g>
		<g>
			<path class="st3" d="M106.47,442.23c21.62-12.1,44.91-20.81,69.16-25.94c4.14-0.88,2.39-7.21-1.75-6.34
				c-24.76,5.22-48.64,14.23-70.72,26.6C99.46,438.63,102.77,444.31,106.47,442.23L106.47,442.23z"/>
		</g>
	</g>
	<g>
		<g>
			<path class="st3" d="M105.53,435.72c9.08-3.16,15.99-9.58,23.57-15.2c4.19-3.09,8.62-5.83,13.16-8.42
				c4.58-2.61,9.19-5.13,14.43-6.16c4.14-0.81,2.39-7.15-1.75-6.34c-4.98,0.99-9.54,3.22-13.95,5.66c-4.69,2.61-9.32,5.37-13.7,8.49
				c-7.61,5.42-14.52,12.48-23.51,15.61C99.81,430.74,101.52,437.1,105.53,435.72L105.53,435.72z"/>
		</g>
	</g>
</g>
<g>
	<g>
		<g>
			<path class="st3" d="M127.9,400.14c-11-22.1-32.89-35.38-54.24-45.99c-3.37-1.68-6.34,3.37-2.96,5.05
				c20.52,10.2,41.57,22.65,52.14,43.91C124.52,406.48,129.55,403.51,127.9,400.14L127.9,400.14z"/>
		</g>
	</g>
	<g>
		<g>
			<path class="st3" d="M127.58,402.54c4.72-12.85,9.5-29.57,23.99-34.43c3.55-1.19,2.03-6.85-1.56-5.64
				c-16.85,5.64-22.53,23.41-28.07,38.52C120.64,404.53,126.3,406.05,127.58,402.54L127.58,402.54z"/>
		</g>
	</g>
	<g>
		<g>
			<path class="st3" d="M120.95,400.53c-2.56-17.48,1.42-35.15,3.49-52.47c0.45-3.73-5.4-3.71-5.85,0
				c-2.13,17.96-5.93,35.89-3.28,54.03C115.84,405.8,121.48,404.22,120.95,400.53L120.95,400.53z"/>
		</g>
	</g>
	<g>
		<g>
			<path class="st3" d="M127.53,400.94c4.43-17.93,8.93-36.03,17.85-52.33c1.81-3.32-3.24-6.26-5.05-2.95
				c-9.15,16.76-13.89,35.32-18.43,53.74C120.99,403.03,126.63,404.59,127.53,400.94L127.53,400.94z"/>
		</g>
	</g>
	<g>
		<g>
			<path class="st3" d="M128.34,400.76c-4.08-20.19-10.28-40.4-24.42-55.96c-2.54-2.79-6.67,1.35-4.14,4.14
				c13.44,14.79,19.06,34.23,22.92,53.39C123.45,406.01,129.09,404.45,128.34,400.76L128.34,400.76z"/>
		</g>
	</g>
	<g>
		<g>
			<path class="st3" d="M126.75,397.56c-13.6-9.17-29.34-15.86-46.01-15.08c-3.75,0.18-3.76,6.03,0,5.85
				c15.72-0.74,30.27,5.66,43.07,14.28C126.92,404.72,129.85,399.65,126.75,397.56L126.75,397.56z"/>
		</g>
	</g>
	<g>
		<g>
			<path class="st3" d="M126.37,402.01c19.23-10.77,39.95-18.51,61.52-23.07c3.69-0.78,2.13-6.42-1.56-5.64
				c-22.02,4.64-43.26,12.66-62.91,23.66C120.13,398.81,123.08,403.86,126.37,402.01L126.37,402.01z"/>
		</g>
	</g>
	<g>
		<g>
			<path class="st3" d="M125.54,396.22c8.08-2.81,14.22-8.52,20.97-13.52c3.73-2.75,7.67-5.19,11.7-7.49
				c4.08-2.32,8.17-4.56,12.83-5.48c3.69-0.72,2.13-6.36-1.56-5.64c-4.43,0.88-8.48,2.87-12.41,5.03
				c-4.17,2.32-8.29,4.78-12.19,7.55c-6.77,4.82-12.91,11.1-20.91,13.89C120.45,391.79,121.97,397.45,125.54,396.22L125.54,396.22z"
				/>
		</g>
	</g>
</g>
<g>
</g>
<g>
</g>
<g>
</g>
<g>
</g>
<g>
</g>
<g>
</g>
<g>
</g>
<g>
</g>
<g>
</g>
<g>
</g>
<g>
</g>
<g>
</g>
<g>
</g>
<g>
</g>
<g>
</g>
</svg>
