<?xml version="1.0" encoding="utf-8"?>
<!-- Generator: Adobe Illustrator 25.3.1, SVG Export Plug-In . SVG Version: 6.00 Build 0)  -->
<svg version="1.1" id="图层_1" xmlns="http://www.w3.org/2000/svg" xmlns:xlink="http://www.w3.org/1999/xlink" x="0px" y="0px"
	 viewBox="0 0 473 475" style="enable-background:new 0 0 473 475;" xml:space="preserve">
<style type="text/css">
	.st0{fill:#FF0000;}
	.st1{stroke:#000000;stroke-width:4;stroke-miterlimit:10;}
</style>
<polygon class="st0" points="236.5,0 0,237.5 236.5,477.35 473,237.5 "/>
<g>
	<path class="st1" d="M215.28,202.47c1.86,0,3.02,0.43,3.49,1.28c0.46,0.85,0.7,2.52,0.7,5c0,2.48-0.27,4.15-0.81,5
		c-0.54,0.85-2.64,1.94-6.28,3.26c-3.65,1.32-6.2,3.06-7.68,5.23c-1.48,2.17-2.21,3.72-2.21,4.65c0,0.93,0.31,1.67,0.93,2.21
		c0.62,0.54,2.52,2.02,5.7,4.42c3.18,2.41,4.77,4.85,4.77,7.33c0,0.93-0.47,2.44-1.4,4.54c-0.93,2.09-2.95,3.14-6.05,3.14
		l-4.89-0.23c-1.4,0-2.17,0.78-2.33,2.33l-0.93,17.68c-0.62,9.93-0.93,16.75-0.93,20.47s0.19,7.44,0.58,11.17
		c0.39,3.72,0.58,6.36,0.58,7.91c0,4.19-1.36,6.94-4.07,8.26c-2.72,1.32-4.93,1.98-6.63,1.98c-2.48,0-3.72-1.24-3.72-3.72
		c0-0.62,0.08-1.24,0.23-1.86c0.47-1.71,0.7-5.12,0.7-10.24s0.12-9.03,0.35-11.75c0.23-2.71,0.35-5.89,0.35-9.54
		c0-3.64-0.27-7.68-0.81-12.1c-0.55-4.42-1.28-6.63-2.21-6.63c-0.62,0-2.17,1.36-4.65,4.07c-2.48,2.71-7.1,7.02-13.84,12.91
		c-6.75,5.9-11.05,9.5-12.91,10.82c-1.86,1.32-3.37,1.98-4.54,1.98s-2.41-0.47-3.72-1.4c-1.32-0.93-1.98-1.94-1.98-3.02
		c0-1.08,1.08-2.64,3.26-4.65c10.24-9.46,18.57-19.23,25.01-29.31c6.43-10.08,9.65-16.2,9.65-18.38c0-1.4-1.24-2.09-3.72-2.09
		c-2.48,0-5.27,0.39-8.37,1.16c-3.1,0.78-5.51,1.78-7.21,3.02c-1.71,1.24-3.14,1.86-4.3,1.86s-2.02-0.46-2.56-1.4
		c-0.54-0.93-1.51-3.99-2.91-9.19c-1.4-5.19-2.09-8.92-2.09-11.17c0-2.25,1.55-3.45,4.65-3.61c6.67-0.15,14.69-1.12,24.08-2.91
		c9.38-1.78,15.35-3.29,17.91-4.54c2.56-1.24,6.08-2.21,10.58-2.91C209.54,202.82,212.96,202.47,215.28,202.47z M215.75,172.69
		c0,4.5-2.17,6.75-6.51,6.75c-2.33,0-5.43-0.54-9.31-1.63c-3.88-1.08-6.36-2.05-7.44-2.91c-1.09-0.85-1.82-2.75-2.21-5.7
		c-0.39-2.94-0.58-6.16-0.58-9.65s0.93-6.75,2.79-9.77c1.86-3.02,3.88-4.54,6.05-4.54c2.17,0,3.64,1.55,4.42,4.65
		c0.47,2.02,1.4,3.95,2.79,5.82c1.4,1.86,3.41,4.27,6.05,7.21C214.43,165.87,215.75,169.13,215.75,172.69z M328.34,252.95
		c0,2.33-2.25,10.35-6.75,24.08c-4.5,13.73-8.53,23.26-12.1,28.61c-3.57,5.35-5.66,9.07-6.28,11.17c-0.62,2.09-1.59,3.14-2.91,3.14
		c-1.32,0-4.11-1.36-8.37-4.07c-4.27-2.71-7.64-5.55-10.12-8.49c-1.4-1.55-2.95-2.33-4.65-2.33c-2.17,0-7.29,0.89-15.35,2.67
		c-8.07,1.78-12.72,3.14-13.96,4.07c-2.02,1.4-3.49,2.09-4.42,2.09c-2.02,0-5.43-3.61-10.23-10.82
		c-4.81-7.21-8.53-14.66-11.17-22.33c-2.64-7.68-3.95-13.41-3.95-17.21c0-3.8,0.27-6.12,0.81-6.98c0.54-0.85,1.98-1.51,4.3-1.98
		c9.46-1.86,17.37-3.95,23.73-6.28c15.2-5.43,28.38-8.14,39.55-8.14s20.94,1.59,29.31,4.77
		C324.15,248.1,328.34,250.78,328.34,252.95z M304.15,204.1c0,0.62-0.46,1.4-1.4,2.33s-1.79,2.17-2.56,3.72
		c-0.93,2.33-2.6,4.62-5,6.86c-2.41,2.25-4.34,4.54-5.82,6.86c-1.48,2.33-2.41,4.15-2.79,5.47c-0.39,1.32-0.93,2.25-1.63,2.79
		c-0.7,0.55-1.75,0.81-3.14,0.81h-4.42c-6.21,0-14.19,1.78-23.96,5.35c-1.09,0.31-2.13,0.46-3.14,0.46c-1.01,0-2.21-0.5-3.61-1.51
		c-1.4-1.01-3.3-3.37-5.7-7.09c-2.41-3.72-4.5-7.99-6.28-12.79c-1.78-4.81-2.68-7.91-2.68-9.31c0-1.4,0.39-2.79,1.16-4.19
		c0.77-1.4,1.82-2.63,3.14-3.72c1.32-1.08,2.98-1.74,5-1.98c2.01-0.23,4.61-0.85,7.79-1.86c3.18-1.01,7.68-2.13,13.49-3.37
		c5.82-1.24,11.63-1.86,17.45-1.86c5.82,0,11.28,1.78,16.4,5.35C301.59,199.99,304.15,202.55,304.15,204.1z M257.39,264.11
		c0-5.12-1.16-7.68-3.49-7.68c-1.71,0-5.04,1.01-10,3.02c-4.97,2.02-7.91,3.69-8.84,5c-0.93,1.32-1.4,3.61-1.4,6.86
		s1.05,8.22,3.14,14.89c2.09,6.67,3.49,10.35,4.19,11.05c0.7,0.7,1.71,1.05,3.02,1.05c1.32,0,3.26-0.35,5.82-1.05
		c2.56-0.7,4.11-1.32,4.65-1.86c0.54-0.54,0.93-1.71,1.16-3.49c0.23-1.78,0.35-3.14,0.35-4.07s-0.47-1.4-1.4-1.4l-3.02,0.46
		c-1.4,0-3.45-1.55-6.17-4.65c-2.71-3.1-4.07-5.39-4.07-6.86c0-1.47,0.31-2.56,0.93-3.26c0.62-0.7,1.86-1.43,3.72-2.21
		c1.86-0.77,3.1-1.12,3.72-1.05c0.62,0.08,1.4,0.12,2.33,0.12C255.6,269,257.39,267.37,257.39,264.11z M295.08,158.5
		c2.33,0,3.99,0.58,5,1.74c1.01,1.16,1.51,3.02,1.51,5.58c0,2.56-0.31,4.3-0.93,5.23c-0.62,0.93-3.57,2.52-8.84,4.77
		c-5.27,2.25-10.2,4.27-14.77,6.05c-4.58,1.78-7.79,2.83-9.65,3.14c-1.86,0.31-4.88,0.46-9.07,0.46c-8.22,0-13.49,0.62-15.82,1.86
		c-0.78,0.47-1.4,0.7-1.86,0.7c-1.55,0-3.02-2.29-4.42-6.86c-1.4-4.57-2.09-8.37-2.09-11.4c0-3.02,0.35-4.88,1.05-5.58
		c0.7-0.7,2.17-0.93,4.42-0.7c2.25,0.23,4.38,0.35,6.4,0.35c7.6,0,17.37-0.89,29.31-2.68C287.24,159.4,293.83,158.5,295.08,158.5z
		 M279.02,206.42c0-1.55-0.66-2.83-1.98-3.84c-1.32-1.01-2.91-1.51-4.77-1.51c-1.86,0-3.65,0.55-5.35,1.63
		c-4.04,2.48-8.46,4.58-13.26,6.28c-1.86,0.78-2.79,2.37-2.79,4.77c0,2.41,0.31,3.95,0.93,4.65c0.62,0.7,2.01,1.05,4.19,1.05
		c5.12,0,10.24-1.12,15.35-3.37C276.46,213.83,279.02,210.61,279.02,206.42z M304.15,262.72c0-8.68-5.58-13.03-16.75-13.03
		c-3.88,0-6.48,0.7-7.79,2.09c-1.32,1.4-1.98,3.95-1.98,7.68c0,1.24,0.43,2.06,1.28,2.44c0.85,0.39,2.94,0.74,6.28,1.05
		c3.33,0.31,5.5,1.01,6.51,2.09c1.01,1.09,1.51,2.48,1.51,4.19c0,2.95-0.7,5.04-2.09,6.28c-1.4,1.24-5.43,2.95-12.1,5.12
		c-1.24,0.31-2.06,0.89-2.44,1.74c-0.39,0.85-0.58,2.44-0.58,4.77c0,2.33,0.23,3.8,0.7,4.42c0.47,0.62,1.63,1.09,3.49,1.4
		c1.86,0.31,3.02,0.78,3.49,1.4c0.46,0.62,0.7,1.82,0.7,3.61c0,1.79,0.5,3.1,1.51,3.96c1.01,0.85,2.59,1.28,4.77,1.28
		c1.08,0,1.98-0.39,2.67-1.16c0.7-0.78,1.98-3.29,3.84-7.56c1.86-4.26,3.49-9.42,4.88-15.47
		C303.45,272.95,304.15,267.53,304.15,262.72z"/>
</g>
<g>
</g>
<g>
</g>
<g>
</g>
<g>
</g>
<g>
</g>
<g>
</g>
<g>
</g>
<g>
</g>
<g>
</g>
<g>
</g>
<g>
</g>
<g>
</g>
<g>
</g>
<g>
</g>
<g>
</g>
</svg>
